<svg width="79" height="26" viewBox="0 0 79 26" fill="none" xmlns="http://www.w3.org/2000/svg">
<path d="M9.84375 11.7051V13.085H2.91797V11.7051H9.84375ZM3.18164 6.20312V19H1.48535V6.20312H3.18164ZM11.3203 6.20312V19H9.63281V6.20312H11.3203ZM19.6963 17.374V12.4785C19.6963 12.1035 19.6201 11.7783 19.4678 11.5029C19.3213 11.2217 19.0986 11.0049 18.7998 10.8525C18.501 10.7002 18.1318 10.624 17.6924 10.624C17.2822 10.624 16.9219 10.6943 16.6113 10.835C16.3066 10.9756 16.0664 11.1602 15.8906 11.3887C15.7207 11.6172 15.6357 11.8633 15.6357 12.127H14.0098C14.0098 11.7871 14.0977 11.4502 14.2734 11.1162C14.4492 10.7822 14.7012 10.4805 15.0293 10.2109C15.3633 9.93555 15.7617 9.71875 16.2246 9.56055C16.6934 9.39648 17.2148 9.31445 17.7891 9.31445C18.4805 9.31445 19.0898 9.43164 19.6172 9.66602C20.1504 9.90039 20.5664 10.2549 20.8652 10.7295C21.1699 11.1982 21.3223 11.7871 21.3223 12.4961V16.9258C21.3223 17.2422 21.3486 17.5791 21.4014 17.9365C21.46 18.2939 21.5449 18.6016 21.6562 18.8594V19H19.96C19.8779 18.8125 19.8135 18.5635 19.7666 18.2529C19.7197 17.9365 19.6963 17.6436 19.6963 17.374ZM19.9775 13.2344L19.9951 14.377H18.3516C17.8887 14.377 17.4756 14.415 17.1123 14.4912C16.749 14.5615 16.4443 14.6699 16.1982 14.8164C15.9521 14.9629 15.7646 15.1475 15.6357 15.3701C15.5068 15.5869 15.4424 15.8418 15.4424 16.1348C15.4424 16.4336 15.5098 16.7061 15.6445 16.9521C15.7793 17.1982 15.9814 17.3945 16.251 17.541C16.5264 17.6816 16.8633 17.752 17.2617 17.752C17.7598 17.752 18.1992 17.6465 18.5801 17.4355C18.9609 17.2246 19.2627 16.9668 19.4854 16.6621C19.7139 16.3574 19.8369 16.0615 19.8545 15.7744L20.5488 16.5566C20.5078 16.8027 20.3965 17.0752 20.2148 17.374C20.0332 17.6729 19.79 17.96 19.4854 18.2354C19.1865 18.5049 18.8291 18.7305 18.4131 18.9121C18.0029 19.0879 17.54 19.1758 17.0244 19.1758C16.3799 19.1758 15.8145 19.0498 15.3281 18.7979C14.8477 18.5459 14.4727 18.209 14.2031 17.7871C13.9395 17.3594 13.8076 16.8818 13.8076 16.3545C13.8076 15.8447 13.9072 15.3965 14.1064 15.0098C14.3057 14.6172 14.5928 14.292 14.9678 14.0342C15.3428 13.7705 15.7939 13.5713 16.3213 13.4365C16.8486 13.3018 17.4375 13.2344 18.0879 13.2344H19.9775ZM25.6377 16.4248L30.0234 9.49023H31.6582V19H30.0234V12.0654L25.6377 19H24.0205V9.49023H25.6377V16.4248ZM29.1357 6.04492H30.4541C30.4541 6.50195 30.3486 6.90918 30.1377 7.2666C29.9268 7.61816 29.625 7.89355 29.2324 8.09277C28.8398 8.29199 28.374 8.3916 27.835 8.3916C27.0205 8.3916 26.376 8.1748 25.9014 7.74121C25.4326 7.30176 25.1982 6.73633 25.1982 6.04492H26.5166C26.5166 6.39062 26.6162 6.69531 26.8154 6.95898C27.0146 7.22266 27.3545 7.35449 27.835 7.35449C28.3037 7.35449 28.6377 7.22266 28.8369 6.95898C29.0361 6.69531 29.1357 6.39062 29.1357 6.04492ZM38.1445 9.49023V19H36.5098V9.49023H38.1445ZM41.335 9.49023V10.8086H33.3809V9.49023H41.335ZM44.6924 16.4248L49.0781 9.49023H50.7129V19H49.0781V12.0654L44.6924 19H43.0752V9.49023H44.6924V16.4248Z" fill="#7C8893"/>
<path d="M78.4594 13.4596C78.7132 13.2058 78.7132 12.7942 78.4594 12.5404L74.3228 8.40381C74.069 8.14996 73.6574 8.14996 73.4036 8.40381C73.1498 8.65765 73.1498 9.0692 73.4036 9.32304L77.0805 13L73.4036 16.677C73.1498 16.9308 73.1498 17.3424 73.4036 17.5962C73.6574 17.85 74.069 17.85 74.3228 17.5962L78.4594 13.4596ZM62.4825 13.65L77.9998 13.65L77.9998 12.35L62.4825 12.35L62.4825 13.65Z" fill="#7C8893"/>
</svg>
