<svg width="25" height="24" viewBox="0 0 25 24" fill="none" xmlns="http://www.w3.org/2000/svg">
<mask id="mask0_2001_236" style="mask-type:luminance" maskUnits="userSpaceOnUse" x="2" y="2" width="20" height="20">
<path fill-rule="evenodd" clip-rule="evenodd" d="M2.42383 2H21.9006V21.477H2.42383V2Z" fill="white"/>
</mask>
<g mask="url(#mask0_2001_236)">
<path fill-rule="evenodd" clip-rule="evenodd" d="M12.1626 3.5C7.61958 3.5 3.92358 7.195 3.92358 11.738C3.92358 16.281 7.61958 19.977 12.1626 19.977C16.7046 19.977 20.4006 16.281 20.4006 11.738C20.4006 7.195 16.7046 3.5 12.1626 3.5ZM12.1626 21.477C6.79258 21.477 2.42358 17.108 2.42358 11.738C2.42358 6.368 6.79258 2 12.1626 2C17.5326 2 21.9006 6.368 21.9006 11.738C21.9006 17.108 17.5326 21.477 12.1626 21.477Z" fill="white"/>
</g>
<mask id="mask1_2001_236" style="mask-type:luminance" maskUnits="userSpaceOnUse" x="17" y="17" width="6" height="6">
<path fill-rule="evenodd" clip-rule="evenodd" d="M17.6638 17.707H22.6879V22.7217H17.6638V17.707Z" fill="white"/>
</mask>
<g mask="url(#mask1_2001_236)">
<path fill-rule="evenodd" clip-rule="evenodd" d="M21.9381 22.7217C21.7471 22.7217 21.5551 22.6487 21.4081 22.5027L17.8841 18.9887C17.5911 18.6957 17.5901 18.2207 17.8831 17.9277C18.1751 17.6327 18.6501 17.6347 18.9441 17.9257L22.4681 21.4407C22.7611 21.7337 22.7621 22.2077 22.4691 22.5007C22.3231 22.6487 22.1301 22.7217 21.9381 22.7217Z" fill="white"/>
</g>
</svg>
