<svg width="32" height="32" viewBox="0 0 32 32" fill="none" xmlns="http://www.w3.org/2000/svg">
<ellipse cx="15.9615" cy="16.186" rx="15.9615" ry="15.7896" fill="#2349C7"/>
<path fill-rule="evenodd" clip-rule="evenodd" d="M14.677 12.596H17.4625V13.9685C17.8637 13.1791 18.8927 12.4699 20.4385 12.4699C23.4017 12.4699 24.1052 14.0412 24.1052 16.9244V22.264H21.1052V17.581C21.1052 15.9391 20.704 15.0132 19.6825 15.0132C18.2657 15.0132 17.677 16.011 17.677 17.5802V22.264H14.677V12.596ZM9.53272 22.1378H12.5327V12.4699H9.53272V22.1378ZM12.9625 9.31744C12.9626 9.56618 12.9127 9.81247 12.8158 10.042C12.7188 10.2715 12.5767 10.4797 12.3977 10.6544C12.035 11.011 11.5441 11.2106 11.0327 11.2093C10.5223 11.209 10.0325 11.0099 9.66922 10.6551C9.49088 10.4798 9.34926 10.2714 9.25248 10.0419C9.1557 9.81233 9.10566 9.56615 9.10522 9.31744C9.10522 8.81516 9.30772 8.33439 9.66997 7.97975C10.0329 7.62449 10.5229 7.42532 11.0335 7.42554C11.545 7.42554 12.0355 7.62511 12.3977 7.97975C12.7592 8.33439 12.9625 8.81516 12.9625 9.31744Z" fill="white"/>
</svg>
