<svg width="32" height="32" viewBox="0 0 32 32" fill="none" xmlns="http://www.w3.org/2000/svg">
<ellipse cx="15.9615" cy="15.7896" rx="15.9615" ry="15.7896" fill="#2349C7"/>
<path d="M16.6281 24.6499C14.3717 24.6499 14.1057 24.6381 13.2252 24.6C12.5385 24.5777 11.8608 24.4396 11.2211 24.1917C10.6736 23.9809 10.1765 23.6599 9.7612 23.2489C9.34592 22.838 9.02156 22.3461 8.80873 21.8044C8.56778 21.1693 8.43782 20.4983 8.42441 19.8201C8.37305 18.9508 8.37305 18.6659 8.37305 16.4511C8.37305 14.2126 8.38497 13.9513 8.42441 13.0848C8.43811 12.4075 8.56807 11.7374 8.80873 11.1031C9.02132 10.5609 9.34589 10.0684 9.76173 9.65718C10.1776 9.24598 10.6755 8.92508 11.2238 8.715C11.8646 8.47564 12.5422 8.34674 13.227 8.33391C14.103 8.28491 14.391 8.28491 16.6281 8.28491C18.9029 8.28491 19.1643 8.29671 20.0311 8.33391C20.7171 8.34661 21.3977 8.47546 22.0398 8.715C22.5879 8.92533 23.0858 9.24631 23.5016 9.65748C23.9174 10.0686 24.242 10.561 24.4549 11.1031C24.6998 11.7474 24.8309 12.4279 24.841 13.1147C24.8924 13.984 24.8924 14.268 24.8924 16.4819C24.8924 18.6959 24.8795 18.9862 24.841 19.8455C24.8273 20.5243 24.697 21.196 24.4558 21.8317C24.2424 22.3736 23.9175 22.8658 23.5015 23.2769C23.0856 23.6881 22.5878 24.0092 22.0398 24.2198C21.3977 24.4575 20.7199 24.5864 20.0347 24.6C19.1588 24.6499 18.8717 24.6499 16.6281 24.6499ZM16.5969 9.72125C14.3534 9.72125 14.1204 9.73214 13.2445 9.77115C12.7213 9.77792 12.2032 9.87336 11.7127 10.0533C11.3549 10.189 11.0298 10.3973 10.7584 10.6649C10.487 10.9324 10.2753 11.2533 10.1369 11.6067C9.95344 12.0967 9.85713 12.6148 9.85162 13.1374C9.80301 14.0166 9.80301 14.2471 9.80301 16.4511C9.80301 18.6287 9.81127 18.8928 9.85162 19.7665C9.85988 20.2837 9.95619 20.7964 10.1369 21.2818C10.4176 21.9959 10.9899 22.5603 11.7136 22.8343C12.2035 23.0154 12.7215 23.1109 13.2445 23.1165C14.1323 23.1673 14.3662 23.1673 16.5969 23.1673C18.8469 23.1673 19.0799 23.1564 19.9485 23.1165C20.4717 23.1102 20.9899 23.0148 21.4803 22.8343C21.8362 22.6976 22.1594 22.4891 22.4294 22.2222C22.6994 21.9552 22.9104 21.6356 23.0488 21.2836C23.2322 20.7937 23.3285 20.2746 23.334 19.752H23.3441C23.3835 18.8846 23.3835 18.6532 23.3835 16.4366C23.3835 14.2199 23.3735 13.9867 23.334 13.1202C23.3257 12.6034 23.2293 12.0917 23.0488 11.6067C22.9107 11.2543 22.6999 10.9341 22.4299 10.6667C22.1598 10.3992 21.8364 10.1903 21.4803 10.0533C20.99 9.87249 20.4717 9.77702 19.9485 9.77115C19.0615 9.72125 18.8295 9.72125 16.5969 9.72125ZM16.6281 20.6421C15.7894 20.6427 14.9693 20.3971 14.2717 19.9366C13.574 19.476 13.0301 18.8212 12.7087 18.0548C12.3873 17.2884 12.3029 16.4449 12.4661 15.6311C12.6293 14.8173 13.0329 14.0696 13.6257 13.4826C14.2185 12.8957 14.974 12.4958 15.7966 12.3337C16.6191 12.1715 17.4718 12.2543 18.2468 12.5715C19.0218 12.8888 19.6843 13.4263 20.1505 14.1161C20.6166 14.8058 20.8656 15.6168 20.8657 16.4465C20.8643 17.5582 20.4175 18.624 19.6232 19.4104C18.8289 20.1968 17.7519 20.6397 16.6281 20.6421ZM16.6281 13.7227C16.0839 13.7227 15.5519 13.8823 15.0994 14.1814C14.6469 14.4805 14.2942 14.9056 14.0859 15.403C13.8776 15.9004 13.8231 16.4477 13.9293 16.9758C14.0355 17.5038 14.2976 17.9888 14.6824 18.3695C15.0672 18.7502 15.5575 19.0094 16.0913 19.1145C16.6251 19.2195 17.1784 19.1656 17.6812 18.9596C18.184 18.7535 18.6137 18.4047 18.9161 17.957C19.2184 17.5094 19.3798 16.9831 19.3798 16.4447C19.3781 15.7233 19.0877 15.0319 18.572 14.5218C18.0563 14.0117 17.3574 13.7243 16.6281 13.7227ZM21.0308 13.0757C20.901 13.0752 20.7725 13.0495 20.6527 12.9999C20.533 12.9503 20.4242 12.8778 20.3327 12.7867C20.148 12.6026 20.0448 12.3534 20.0457 12.094C20.0467 11.8346 20.1518 11.5861 20.3379 11.4034C20.5241 11.2206 20.7759 11.1185 21.0382 11.1195C21.3004 11.1204 21.5515 11.2244 21.7363 11.4085C21.921 11.5926 22.0243 11.8418 22.0233 12.1012C22.0223 12.3606 21.9172 12.6091 21.7311 12.7918C21.545 12.9746 21.2931 13.0767 21.0308 13.0757Z" fill="white"/>
</svg>
