<svg width="116" height="113" viewBox="0 0 116 113" fill="none" xmlns="http://www.w3.org/2000/svg">
<ellipse opacity="0.65" cx="57.9726" cy="56.5" rx="57.9726" ry="56.5" fill="#2349C7"/>
<ellipse cx="57.9729" cy="56.5" rx="48.7381" ry="47.5" fill="#2349C7"/>
<path d="M70.186 53.6326C71.0648 54.2882 71.5995 55.4429 71.5995 56.6869C71.5995 57.931 71.0648 59.0857 70.186 59.6742L52.4882 72.7853C51.5774 73.5228 50.4374 73.5526 49.5069 72.9194C49.0496 72.6083 48.6689 72.1552 48.4041 71.6065C48.1392 71.0579 47.9997 70.4337 48 69.798V43.5758C48.0001 42.9406 48.1397 42.3168 48.4046 41.7686C48.6694 41.2204 49.0499 40.7676 49.5069 40.4567C49.9641 40.1461 50.4812 39.9887 51.0051 40.0006C51.5291 40.0125 52.041 40.1934 52.4882 40.5245L70.186 53.6326Z" fill="white"/>
</svg>
