<svg width="149" height="24" viewBox="0 0 149 24" fill="none" xmlns="http://www.w3.org/2000/svg">
<path d="M46.8062 4.45455V19H44.6187V6.32955H37.7721V19H35.5846V4.45455H46.8062ZM54.9867 19.2202C53.964 19.2202 53.0714 18.9858 52.3091 18.517C51.5468 18.0483 50.955 17.3925 50.5336 16.5497C50.1122 15.7069 49.9015 14.7221 49.9015 13.5952C49.9015 12.4635 50.1122 11.474 50.5336 10.6264C50.955 9.77888 51.5468 9.12074 52.3091 8.65199C53.0714 8.18324 53.964 7.94886 54.9867 7.94886C56.0094 7.94886 56.9019 8.18324 57.6642 8.65199C58.4266 9.12074 59.0184 9.77888 59.4398 10.6264C59.8612 11.474 60.0719 12.4635 60.0719 13.5952C60.0719 14.7221 59.8612 15.7069 59.4398 16.5497C59.0184 17.3925 58.4266 18.0483 57.6642 18.517C56.9019 18.9858 56.0094 19.2202 54.9867 19.2202ZM54.9938 17.4375C55.6567 17.4375 56.2059 17.2623 56.6415 16.9119C57.0771 16.5616 57.3991 16.0952 57.6074 15.5128C57.8205 14.9304 57.927 14.2888 57.927 13.5881C57.927 12.892 57.8205 12.2528 57.6074 11.6705C57.3991 11.0833 57.0771 10.6122 56.6415 10.2571C56.2059 9.90199 55.6567 9.72443 54.9938 9.72443C54.3262 9.72443 53.7722 9.90199 53.3319 10.2571C52.8963 10.6122 52.5719 11.0833 52.3589 11.6705C52.1505 12.2528 52.0464 12.892 52.0464 13.5881C52.0464 14.2888 52.1505 14.9304 52.3589 15.5128C52.5719 16.0952 52.8963 16.5616 53.3319 16.9119C53.7722 17.2623 54.3262 17.4375 54.9938 17.4375ZM61.777 22.1463V17.1605H62.6647C62.892 16.9522 63.0838 16.7036 63.24 16.4148C63.401 16.1259 63.536 15.7827 63.6449 15.3849C63.7585 14.9872 63.8532 14.5232 63.929 13.9929C64.0047 13.4579 64.071 12.8471 64.1278 12.1605L64.4687 8.09091H71.8835V17.1605H73.5596V22.1463H71.4858V19H63.8792V22.1463H61.777ZM64.9375 17.1605H69.8096V9.90909H66.3721L66.1449 12.1605C66.036 13.3063 65.8986 14.3007 65.7329 15.1435C65.5672 15.9815 65.3021 16.6539 64.9375 17.1605ZM76.0353 23.0909V8.09091H78.1091V9.85938H78.2867C78.4098 9.6321 78.5874 9.36932 78.8194 9.07102C79.0514 8.77273 79.3733 8.51231 79.7853 8.28977C80.1972 8.0625 80.7417 7.94886 81.4188 7.94886C82.2995 7.94886 83.0855 8.1714 83.7767 8.61648C84.468 9.06155 85.0102 9.70312 85.4032 10.5412C85.8009 11.3793 85.9998 12.3878 85.9998 13.5668C85.9998 14.7457 85.8033 15.7566 85.4103 16.5994C85.0173 17.4375 84.4775 18.0838 83.791 18.5384C83.1044 18.9882 82.3208 19.2131 81.4401 19.2131C80.7772 19.2131 80.2351 19.1018 79.8137 18.8793C79.397 18.6567 79.0703 18.3963 78.8336 18.098C78.5968 17.7997 78.4145 17.5346 78.2867 17.3026H78.1589V23.0909H76.0353ZM78.1162 13.5455C78.1162 14.3125 78.2275 14.9848 78.45 15.5625C78.6726 16.1402 78.9946 16.5923 79.416 16.919C79.8374 17.241 80.3535 17.402 80.9642 17.402C81.5987 17.402 82.129 17.2339 82.5552 16.8977C82.9813 16.5568 83.3033 16.0952 83.5211 15.5128C83.7436 14.9304 83.8549 14.2746 83.8549 13.5455C83.8549 12.8258 83.746 12.1795 83.5282 11.6065C83.3151 11.0336 82.9931 10.5814 82.5623 10.25C82.1361 9.91856 81.6035 9.75284 80.9642 9.75284C80.3487 9.75284 79.8279 9.91146 79.4017 10.2287C78.9803 10.5459 78.6607 10.9886 78.4429 11.5568C78.2251 12.125 78.1162 12.7879 78.1162 13.5455ZM93.3742 19.2202C92.3515 19.2202 91.4589 18.9858 90.6966 18.517C89.9343 18.0483 89.3425 17.3925 88.9211 16.5497C88.4997 15.7069 88.289 14.7221 88.289 13.5952C88.289 12.4635 88.4997 11.474 88.9211 10.6264C89.3425 9.77888 89.9343 9.12074 90.6966 8.65199C91.4589 8.18324 92.3515 7.94886 93.3742 7.94886C94.3969 7.94886 95.2894 8.18324 96.0517 8.65199C96.8141 9.12074 97.4059 9.77888 97.8273 10.6264C98.2487 11.474 98.4594 12.4635 98.4594 13.5952C98.4594 14.7221 98.2487 15.7069 97.8273 16.5497C97.4059 17.3925 96.8141 18.0483 96.0517 18.517C95.2894 18.9858 94.3969 19.2202 93.3742 19.2202ZM93.3813 17.4375C94.0442 17.4375 94.5934 17.2623 95.029 16.9119C95.4646 16.5616 95.7866 16.0952 95.9949 15.5128C96.208 14.9304 96.3145 14.2888 96.3145 13.5881C96.3145 12.892 96.208 12.2528 95.9949 11.6705C95.7866 11.0833 95.4646 10.6122 95.029 10.2571C94.5934 9.90199 94.0442 9.72443 93.3813 9.72443C92.7137 9.72443 92.1597 9.90199 91.7194 10.2571C91.2838 10.6122 90.9594 11.0833 90.7463 11.6705C90.538 12.2528 90.4338 12.892 90.4338 13.5881C90.4338 14.2888 90.538 14.9304 90.7463 15.5128C90.9594 16.0952 91.2838 16.5616 91.7194 16.9119C92.1597 17.2623 92.7137 17.4375 93.3813 17.4375ZM109.646 4.02841L110.527 5.37074C110.2 5.66903 109.828 5.8821 109.412 6.00994C109 6.13305 108.524 6.21117 107.984 6.24432C107.444 6.27273 106.826 6.29877 106.13 6.32244C105.344 6.34612 104.698 6.51657 104.191 6.83381C103.685 7.14631 103.294 7.61032 103.02 8.22585C102.75 8.83665 102.574 9.60369 102.494 10.527H102.629C102.984 9.8499 103.476 9.34328 104.106 9.0071C104.741 8.67093 105.453 8.50284 106.244 8.50284C107.125 8.50284 107.908 8.70407 108.595 9.10653C109.281 9.509 109.821 10.0985 110.214 10.875C110.612 11.6468 110.811 12.5914 110.811 13.7088C110.811 14.8404 110.602 15.8182 110.186 16.642C109.774 17.4659 109.191 18.1027 108.439 18.5526C107.691 18.9976 106.807 19.2202 105.789 19.2202C104.771 19.2202 103.884 18.9905 103.126 18.5312C102.373 18.0672 101.789 17.3807 101.372 16.4716C100.96 15.5625 100.754 14.4403 100.754 13.1051V12.0256C100.754 9.5303 101.199 7.65294 102.089 6.39347C102.979 5.134 104.31 4.48769 106.081 4.45455C106.654 4.44034 107.165 4.43797 107.615 4.44744C108.065 4.45218 108.458 4.43087 108.794 4.38352C109.135 4.33144 109.419 4.21307 109.646 4.02841ZM105.797 17.4375C106.388 17.4375 106.897 17.2884 107.324 16.9901C107.754 16.687 108.086 16.2585 108.318 15.7045C108.55 15.1506 108.666 14.4972 108.666 13.7443C108.666 13.0057 108.55 12.3783 108.318 11.8622C108.086 11.3461 107.754 10.9531 107.324 10.6832C106.893 10.4086 106.377 10.2713 105.775 10.2713C105.33 10.2713 104.932 10.3494 104.582 10.5057C104.232 10.6572 103.931 10.8821 103.68 11.1804C103.434 11.4787 103.242 11.8433 103.105 12.2741C102.972 12.7003 102.901 13.1903 102.892 13.7443C102.892 14.8712 103.15 15.7685 103.666 16.4361C104.187 17.1037 104.897 17.4375 105.797 17.4375ZM120.976 12.6293V14.4688H115.067V12.6293H120.976ZM115.664 8.09091V19H113.583V8.09091H115.664ZM122.461 8.09091V19H120.387V8.09091H122.461ZM130.403 19.2202C129.329 19.2202 128.403 18.9905 127.626 18.5312C126.855 18.0672 126.258 17.4162 125.837 16.5781C125.42 15.7353 125.212 14.7481 125.212 13.6165C125.212 12.4991 125.42 11.5142 125.837 10.6619C126.258 9.80966 126.845 9.14441 127.598 8.66619C128.356 8.18797 129.241 7.94886 130.254 7.94886C130.87 7.94886 131.466 8.05066 132.044 8.25426C132.622 8.45786 133.14 8.77746 133.599 9.21307C134.059 9.64867 134.421 10.2145 134.686 10.9105C134.951 11.6018 135.084 12.4422 135.084 13.4318V14.1847H126.412V12.5938H133.003C133.003 12.035 132.889 11.5402 132.662 11.1094C132.435 10.6738 132.115 10.3305 131.703 10.0795C131.296 9.8286 130.818 9.70312 130.268 9.70312C129.672 9.70312 129.151 9.84991 128.706 10.1435C128.266 10.4323 127.925 10.8111 127.683 11.2798C127.446 11.7438 127.328 12.2481 127.328 12.7926V14.0355C127.328 14.7647 127.456 15.3849 127.712 15.8963C127.972 16.4077 128.334 16.7983 128.798 17.0682C129.262 17.3333 129.804 17.4659 130.425 17.4659C130.827 17.4659 131.194 17.4091 131.526 17.2955C131.857 17.1771 132.143 17.0019 132.385 16.7699C132.626 16.5379 132.811 16.2514 132.939 15.9105L134.949 16.2727C134.788 16.8646 134.499 17.383 134.082 17.8281C133.67 18.2685 133.152 18.6117 132.527 18.858C131.907 19.0994 131.199 19.2202 130.403 19.2202ZM142.542 19.2202C141.467 19.2202 140.541 18.9905 139.765 18.5312C138.993 18.0672 138.396 17.4162 137.975 16.5781C137.558 15.7353 137.35 14.7481 137.35 13.6165C137.35 12.4991 137.558 11.5142 137.975 10.6619C138.396 9.80966 138.983 9.14441 139.736 8.66619C140.494 8.18797 141.379 7.94886 142.393 7.94886C143.008 7.94886 143.605 8.05066 144.182 8.25426C144.76 8.45786 145.278 8.77746 145.738 9.21307C146.197 9.64867 146.559 10.2145 146.824 10.9105C147.089 11.6018 147.222 12.4422 147.222 13.4318V14.1847H138.55V12.5938H145.141C145.141 12.035 145.027 11.5402 144.8 11.1094C144.573 10.6738 144.253 10.3305 143.841 10.0795C143.434 9.8286 142.956 9.70312 142.407 9.70312C141.81 9.70312 141.289 9.84991 140.844 10.1435C140.404 10.4323 140.063 10.8111 139.821 11.2798C139.585 11.7438 139.466 12.2481 139.466 12.7926V14.0355C139.466 14.7647 139.594 15.3849 139.85 15.8963C140.11 16.4077 140.473 16.7983 140.937 17.0682C141.401 17.3333 141.943 17.4659 142.563 17.4659C142.965 17.4659 143.332 17.4091 143.664 17.2955C143.995 17.1771 144.282 17.0019 144.523 16.7699C144.765 16.5379 144.949 16.2514 145.077 15.9105L147.087 16.2727C146.926 16.8646 146.637 17.383 146.221 17.8281C145.809 18.2685 145.29 18.6117 144.665 18.858C144.045 19.0994 143.337 19.2202 142.542 19.2202Z" fill="#2349C7"/>
<path d="M22.2318 12.7071C22.6223 12.3166 22.6223 11.6834 22.2318 11.2929L15.8678 4.92893C15.4773 4.53841 14.8442 4.53841 14.4536 4.92893C14.0631 5.31946 14.0631 5.95262 14.4536 6.34315L20.1105 12L14.4536 17.6569C14.0631 18.0474 14.0631 18.6805 14.4536 19.0711C14.8442 19.4616 15.4773 19.4616 15.8678 19.0711L22.2318 12.7071ZM0 13H21.5247V11H0V13Z" fill="#2349C7"/>
</svg>
