<svg width="32" height="32" viewBox="0 0 32 32" fill="none" xmlns="http://www.w3.org/2000/svg">
<ellipse cx="15.9615" cy="15.7896" rx="15.9615" ry="15.7896" fill="#2349C7"/>
<path d="M24.1238 10.8486C23.5261 11.1036 22.8757 11.2872 22.2058 11.3587C22.9013 10.9499 23.4222 10.3041 23.6707 9.5425C23.018 9.92658 22.303 10.1959 21.5574 10.3385C21.2457 10.009 20.8688 9.74641 20.4502 9.56725C20.0315 9.38808 19.58 9.29613 19.1238 9.29713C17.2781 9.29713 15.7937 10.7771 15.7937 12.5933C15.7937 12.8483 15.825 13.1033 15.8757 13.3487C13.1121 13.2057 10.6472 11.8996 9.00855 9.89994C8.70996 10.4044 8.55349 10.9789 8.55542 11.5635C8.55542 12.7073 9.14331 13.7158 10.0398 14.309C9.51148 14.2884 8.99554 14.1447 8.53394 13.8897V13.9303C8.53394 15.532 9.67847 16.8593 11.2039 17.1646C10.9174 17.2382 10.6228 17.2758 10.3269 17.2766C10.1101 17.2766 9.90503 17.2554 9.698 17.2264C10.1199 18.5325 11.3484 19.4812 12.8113 19.5121C11.6667 20.3989 10.2332 20.9206 8.67651 20.9206C8.39722 20.9206 8.1394 20.9109 7.87183 20.88C9.34839 21.817 11.1003 22.358 12.9871 22.358C19.1121 22.358 22.4636 17.3385 22.4636 12.9816C22.4636 12.8386 22.4636 12.6957 22.4539 12.5527C23.1023 12.0832 23.6707 11.5016 24.1238 10.8486Z" fill="white"/>
</svg>
